<?xml version="1.0" encoding="UTF-8"?>
<!DOCTYPE svg PUBLIC "-//W3C//DTD SVG 1.1//EN" "http://www.w3.org/Graphics/SVG/1.1/DTD/svg11.dtd">
<svg xmlns="http://www.w3.org/2000/svg" version="1.1" width="300px" height="294px" style="shape-rendering:geometricPrecision; text-rendering:geometricPrecision; image-rendering:optimizeQuality; fill-rule:evenodd; clip-rule:evenodd" xmlns:xlink="http://www.w3.org/1999/xlink">
<g><path style="opacity:1" fill="#750d0f" d="M 143.5,50.5 C 138.265,52.45 132.598,53.1167 126.5,52.5C 131.929,50.9879 137.596,50.3213 143.5,50.5 Z"/></g>
<g><path style="opacity:1" fill="#730f0b" d="M 149.5,50.5 C 155.417,50.216 161.084,50.8827 166.5,52.5C 161.489,52.6659 156.489,52.4993 151.5,52C 150.584,51.7216 149.918,51.2216 149.5,50.5 Z"/></g>
<g><path style="opacity:1" fill="#770b10" d="M 168.5,52.5 C 170.698,52.8751 172.698,53.5418 174.5,54.5C 171.918,54.9746 169.918,54.3079 168.5,52.5 Z"/></g>
<g><path style="opacity:1" fill="#7c0809" d="M 126.5,52.5 C 124.884,53.9892 122.884,54.9892 120.5,55.5C 117.914,56.48 115.247,56.8134 112.5,56.5C 116.805,54.2538 121.471,52.9205 126.5,52.5 Z"/></g>
<g><path style="opacity:1" fill="#790e11" d="M 175.5,54.5 C 181.879,56.0668 187.879,58.4002 193.5,61.5C 186.788,60.3521 180.788,58.0188 175.5,54.5 Z"/></g>
<g><path style="opacity:1" fill="#8a0a09" d="M 143.5,50.5 C 145.5,50.5 147.5,50.5 149.5,50.5C 149.918,51.2216 150.584,51.7216 151.5,52C 156.489,52.4993 161.489,52.6659 166.5,52.5C 167.167,52.5 167.833,52.5 168.5,52.5C 169.918,54.3079 171.918,54.9746 174.5,54.5C 174.833,54.5 175.167,54.5 175.5,54.5C 180.788,58.0188 186.788,60.3521 193.5,61.5C 194.287,63.1042 195.62,63.7709 197.5,63.5C 198.167,63.8333 198.833,64.1667 199.5,64.5C 200.979,67.3049 203.312,68.9716 206.5,69.5C 207.167,69.8333 207.833,70.1667 208.5,70.5C 208.414,71.4959 208.748,72.3292 209.5,73C 211.405,74.4213 213.405,75.588 215.5,76.5C 218.5,78.8333 221.167,81.5 223.5,84.5C 224.419,87.0892 226.086,89.0892 228.5,90.5C 228.559,94.4413 230.225,97.4413 233.5,99.5C 233.938,102.556 235.105,105.223 237,107.5C 237.333,107.167 237.667,106.833 238,106.5C 239.286,109.405 240.286,112.405 241,115.5C 241.949,117.093 243.115,118.426 244.5,119.5C 245.449,124.146 245.615,128.813 245,133.5C 245.986,132.829 247.153,132.829 248.5,133.5C 248.5,133.833 248.5,134.167 248.5,134.5C 248.334,139.511 248.501,144.511 249,149.5C 249.383,150.056 249.883,150.389 250.5,150.5C 250.5,153.167 250.5,155.833 250.5,158.5C 249.778,158.082 249.278,157.416 249,156.5C 248.501,162.491 248.334,168.491 248.5,174.5C 248.5,174.833 248.5,175.167 248.5,175.5C 245.377,180.178 243.71,185.512 243.5,191.5C 243.5,191.833 243.5,192.167 243.5,192.5C 240.139,194.534 238.473,197.534 238.5,201.5C 237.178,201.33 236.011,201.663 235,202.5C 234.256,205.89 233.423,209.223 232.5,212.5C 226.068,222.387 218.068,230.72 208.5,237.5C 206.801,237.34 205.134,237.506 203.5,238C 201.388,240.316 198.722,241.65 195.5,242C 196.381,242.708 197.047,243.542 197.5,244.5C 192.436,245.202 188.103,247.202 184.5,250.5C 182.786,251.738 180.786,252.405 178.5,252.5C 176.089,252.863 174.589,251.863 174,249.5C 172.64,251.105 171.14,252.605 169.5,254C 167.026,254.037 165.026,254.87 163.5,256.5C 162.833,256.5 162.167,256.5 161.5,256.5C 151.5,256.5 141.5,256.5 131.5,256.5C 131.389,255.883 131.056,255.383 130.5,255C 127.518,254.502 124.518,254.335 121.5,254.5C 117.086,251.473 112.086,249.806 106.5,249.5C 105.251,247.864 103.584,246.697 101.5,246C 103.464,240.888 102.297,240.388 98,244.5C 96.8615,244.011 95.6948,243.678 94.5,243.5C 94.0269,242.094 93.0269,241.427 91.5,241.5C 90.5084,241.672 89.8417,241.338 89.5,240.5C 88.5477,238.888 88.2144,237.388 88.5,236C 85.4873,235.091 82.4873,234.258 79.5,233.5C 79.1667,231.167 77.8333,229.833 75.5,229.5C 74.5,226.5 72.5,224.5 69.5,223.5C 68.4909,220.951 67.6575,218.285 67,215.5C 65.8545,216.684 64.6879,216.684 63.5,215.5C 62.065,211.297 60.065,207.297 57.5,203.5C 56.5832,202.873 55.5832,202.539 54.5,202.5C 52.552,198.271 50.8853,193.938 49.5,189.5C 49.8432,187.517 49.1765,186.183 47.5,185.5C 47.5,184.833 47.5,184.167 47.5,183.5C 46.5558,173.721 45.5558,164.054 44.5,154.5C 44.6667,150.167 44.8333,145.833 45,141.5C 45.3095,140.234 45.8095,139.067 46.5,138C 45.8984,136.096 46.3984,134.263 48,132.5C 48.4983,129.183 48.665,125.85 48.5,122.5C 49.0653,118.463 50.3987,114.797 52.5,111.5C 55.8922,110.01 57.2255,107.343 56.5,103.5C 57.5,103.167 58.1667,102.5 58.5,101.5C 59.4959,101.586 60.3292,101.252 61,100.5C 61.4986,104.152 61.6653,107.818 61.5,111.5C 62.675,111.719 63.675,111.386 64.5,110.5C 63.921,106.904 63.921,103.237 64.5,99.5C 63.5,99.5 62.5,99.5 61.5,99.5C 61.954,96.8602 63.1207,94.5268 65,92.5C 65.8928,93.7112 66.7261,93.7112 67.5,92.5C 68.5134,89.8122 69.5134,87.1456 70.5,84.5C 71.8333,81.1667 74.1667,78.8333 77.5,77.5C 80.0892,76.5806 82.0892,74.914 83.5,72.5C 86.3702,71.5667 88.7036,69.9 90.5,67.5C 91.8734,67.6567 93.2068,67.49 94.5,67C 98.2508,65.0861 101.584,62.5861 104.5,59.5C 107.577,59.821 109.91,58.821 111.5,56.5C 111.833,56.5 112.167,56.5 112.5,56.5C 115.247,56.8134 117.914,56.48 120.5,55.5C 122.884,54.9892 124.884,53.9892 126.5,52.5C 132.598,53.1167 138.265,52.45 143.5,50.5 Z M 161.5,85.5 C 163.7,86.8619 165.7,88.5286 167.5,90.5C 168.82,93.1401 170.153,95.8068 171.5,98.5C 175.469,106.68 177.136,115.347 176.5,124.5C 176.5,124.833 176.5,125.167 176.5,125.5C 174.95,131.939 172.283,137.939 168.5,143.5C 163.5,147.833 158.833,152.5 154.5,157.5C 149.895,160.436 145.895,164.102 142.5,168.5C 142.5,168.833 142.5,169.167 142.5,169.5C 140.413,170.585 139.08,172.251 138.5,174.5C 136.076,177.008 134.41,180.008 133.5,183.5C 131.96,185.838 131.294,188.505 131.5,191.5C 130.691,193.292 130.191,195.292 130,197.5C 129.545,194.146 129.045,190.813 128.5,187.5C 129.394,183.142 130.728,178.809 132.5,174.5C 132.5,174.167 132.5,173.833 132.5,173.5C 135.802,169.191 139.136,164.857 142.5,160.5C 143.167,160.5 143.5,160.167 143.5,159.5C 146.167,157.5 148.5,155.167 150.5,152.5C 151.5,151.167 152.5,149.833 153.5,148.5C 156.959,145.585 159.959,142.252 162.5,138.5C 162.5,138.167 162.5,137.833 162.5,137.5C 164.192,135.795 165.525,133.795 166.5,131.5C 167.566,129.299 168.233,126.965 168.5,124.5C 170.727,118.732 171.06,112.732 169.5,106.5C 168.25,101.36 167.584,101.36 167.5,106.5C 167.453,109.969 166.787,113.302 165.5,116.5C 164.326,117.514 163.66,118.847 163.5,120.5C 159.808,123.862 156.141,127.195 152.5,130.5C 146.269,133.775 140.603,137.775 135.5,142.5C 132.911,143.419 130.911,145.086 129.5,147.5C 128.5,147.833 127.833,148.5 127.5,149.5C 124.395,152.275 122.062,155.608 120.5,159.5C 119.326,160.514 118.66,161.847 118.5,163.5C 117.076,165.515 116.41,167.848 116.5,170.5C 114.116,178.679 114.116,187.012 116.5,195.5C 117.462,199.395 118.796,203.061 120.5,206.5C 120.5,206.833 120.5,207.167 120.5,207.5C 121.263,209.368 122.263,211.035 123.5,212.5C 124.58,214.996 125.914,217.33 127.5,219.5C 125.5,218.833 123.5,218.167 121.5,217.5C 118.106,214.779 114.439,212.446 110.5,210.5C 108.167,207.5 105.5,204.833 102.5,202.5C 101.581,199.911 99.914,197.911 97.5,196.5C 97.2503,194.326 96.2503,192.659 94.5,191.5C 92.7365,186.978 90.7365,182.645 88.5,178.5C 88.5,178.167 88.5,177.833 88.5,177.5C 83.5387,159.006 84.872,141.006 92.5,123.5C 95.0692,120.039 97.4026,116.372 99.5,112.5C 101.262,111.738 102.262,110.404 102.5,108.5C 104.167,107.5 105.5,106.167 106.5,104.5C 109.109,103.557 111.109,101.89 112.5,99.5C 114.404,99.2624 115.738,98.2624 116.5,96.5C 121.211,94.1584 125.877,91.8251 130.5,89.5C 134.397,88.9448 138.063,87.9448 141.5,86.5C 148.143,85.7875 154.809,85.4542 161.5,85.5 Z M 173.5,94.5 C 173.56,93.9569 173.893,93.6236 174.5,93.5C 176.529,94.8435 178.529,96.1769 180.5,97.5C 185.181,103.199 188.514,109.532 190.5,116.5C 189.294,118.437 189.627,120.104 191.5,121.5C 192.833,123.5 194.5,125.167 196.5,126.5C 199.271,129.392 202.271,132.058 205.5,134.5C 206.511,136.402 206.678,138.402 206,140.5C 200.486,142.603 199.32,145.936 202.5,150.5C 202.5,151.167 202.5,151.833 202.5,152.5C 198.922,153.137 198.588,154.637 201.5,157C 200.748,157.671 200.414,158.504 200.5,159.5C 199.305,159.866 198.639,160.699 198.5,162C 199.871,164.319 200.538,166.819 200.5,169.5C 199.718,171.451 198.384,172.951 196.5,174C 186.379,174.721 176.713,176.888 167.5,180.5C 164.669,181.079 162.336,182.412 160.5,184.5C 155.444,187.223 151.777,191.223 149.5,196.5C 147.268,199.841 145.602,203.508 144.5,207.5C 143.169,210.829 141.836,214.162 140.5,217.5C 138.5,218.833 136.833,220.5 135.5,222.5C 134.351,222.209 133.684,221.376 133.5,220C 134.286,216.542 134.62,213.042 134.5,209.5C 135.612,207.401 136.279,205.067 136.5,202.5C 138.795,197.235 141.128,191.902 143.5,186.5C 145.522,184.469 147.189,182.135 148.5,179.5C 149.89,178.101 150.89,176.434 151.5,174.5C 153.262,173.738 154.262,172.404 154.5,170.5C 155.5,170.167 156.167,169.5 156.5,168.5C 158.547,166.45 160.214,164.117 161.5,161.5C 166.998,155.995 171.331,149.662 174.5,142.5C 176.341,140.151 177.674,137.485 178.5,134.5C 178.5,134.167 178.5,133.833 178.5,133.5C 179.738,131.786 180.405,129.786 180.5,127.5C 181.833,122.167 181.833,116.833 180.5,111.5C 179.514,105.205 177.18,99.5382 173.5,94.5 Z"/></g>
<g><path style="opacity:1" fill="#730c0c" d="M 111.5,56.5 C 109.91,58.821 107.577,59.821 104.5,59.5C 106.509,57.9348 108.843,56.9348 111.5,56.5 Z"/></g>
<g><path style="opacity:1" fill="#740c0b" d="M 104.5,59.5 C 101.584,62.5861 98.2508,65.0861 94.5,67C 93.2068,67.49 91.8734,67.6567 90.5,67.5C 94.5067,63.8255 99.1734,61.1588 104.5,59.5 Z"/></g>
<g><path style="opacity:0.616" fill="#6e1415" d="M 193.5,61.5 C 195.153,61.6596 196.486,62.3263 197.5,63.5C 195.62,63.7709 194.287,63.1042 193.5,61.5 Z"/></g>
<g><path style="opacity:1" fill="#700f11" d="M 199.5,64.5 C 202.135,65.8109 204.469,67.4776 206.5,69.5C 203.312,68.9716 200.979,67.3049 199.5,64.5 Z"/></g>
<g><path style="opacity:0.722" fill="#74090d" d="M 90.5,67.5 C 88.7036,69.9 86.3702,71.5667 83.5,72.5C 85.2964,70.1 87.6298,68.4333 90.5,67.5 Z"/></g>
<g><path style="opacity:0.737" fill="#731114" d="M 208.5,70.5 C 211.432,71.7997 213.766,73.7997 215.5,76.5C 213.405,75.588 211.405,74.4213 209.5,73C 208.748,72.3292 208.414,71.4959 208.5,70.5 Z"/></g>
<g><path style="opacity:1" fill="#750a0e" d="M 83.5,72.5 C 82.0892,74.914 80.0892,76.5806 77.5,77.5C 78.9108,75.086 80.9108,73.4194 83.5,72.5 Z"/></g>
<g><path style="opacity:1" fill="#7d0b0d" d="M 141.5,86.5 C 138.063,87.9448 134.397,88.9448 130.5,89.5C 131.768,88.213 131.435,87.213 129.5,86.5C 130.5,86.1667 131.5,85.8333 132.5,85.5C 135.468,86.1616 138.468,86.495 141.5,86.5 Z"/></g>
<g><path style="opacity:1" fill="#741817" d="M 223.5,84.5 C 225.914,85.9108 227.581,87.9108 228.5,90.5C 226.086,89.0892 224.419,87.0892 223.5,84.5 Z"/></g>
<g><path style="opacity:0.91" fill="#760f14" d="M 161.5,85.5 C 165.31,84.976 167.31,86.6426 167.5,90.5C 165.7,88.5286 163.7,86.8619 161.5,85.5 Z"/></g>
<g><path style="opacity:1" fill="#840b0a" d="M 180.5,97.5 C 178.529,96.1769 176.529,94.8435 174.5,93.5C 173.893,93.6236 173.56,93.9569 173.5,94.5C 173.843,96.4832 173.176,97.8166 171.5,98.5C 170.153,95.8068 168.82,93.1401 167.5,90.5C 167.31,86.6426 165.31,84.976 161.5,85.5C 154.809,85.4542 148.143,85.7875 141.5,86.5C 141.611,85.8826 141.944,85.3826 142.5,85C 150.159,84.5003 157.826,84.3336 165.5,84.5C 164.833,80.5 166.5,78.8333 170.5,79.5C 171.626,82.1407 172.959,84.8074 174.5,87.5C 177.679,89.0115 180.346,91.1782 182.5,94C 181.027,94.7096 180.36,95.8762 180.5,97.5 Z"/></g>
<g><path style="opacity:1" fill="#770a0b" d="M 130.5,89.5 C 125.877,91.8251 121.211,94.1584 116.5,96.5C 119.199,91.8312 123.866,89.4978 130.5,89.5 Z"/></g>
<g><path style="opacity:1" fill="#7f0d0f" d="M 228.5,90.5 C 236.142,98.7745 241.475,108.441 244.5,119.5C 243.115,118.426 241.949,117.093 241,115.5C 240.286,112.405 239.286,109.405 238,106.5C 237.667,106.833 237.333,107.167 237,107.5C 235.105,105.223 233.938,102.556 233.5,99.5C 230.225,97.4413 228.559,94.4413 228.5,90.5 Z"/></g>
<g><path style="opacity:1" fill="#750a0c" d="M 116.5,96.5 C 115.738,98.2624 114.404,99.2624 112.5,99.5C 112.5,98.5 112.5,97.5 112.5,96.5C 113.833,96.5 115.167,96.5 116.5,96.5 Z"/></g>
<g><path style="opacity:0.725" fill="#681010" d="M 58.5,100.5 C 58.5,100.833 58.5,101.167 58.5,101.5C 58.1667,102.5 57.5,103.167 56.5,103.5C 56.427,101.973 57.0937,100.973 58.5,100.5 Z"/></g>
<g><path style="opacity:1" fill="#840b0d" d="M 70.5,84.5 C 69.5134,87.1456 68.5134,89.8122 67.5,92.5C 66.7261,93.7112 65.8928,93.7112 65,92.5C 63.1207,94.5268 61.954,96.8602 61.5,99.5C 62.5,99.5 63.5,99.5 64.5,99.5C 63.921,103.237 63.921,106.904 64.5,110.5C 63.675,111.386 62.675,111.719 61.5,111.5C 61.6653,107.818 61.4986,104.152 61,100.5C 60.3292,101.252 59.4959,101.586 58.5,101.5C 58.5,101.167 58.5,100.833 58.5,100.5C 61.3529,94.3128 65.3529,88.9795 70.5,84.5 Z"/></g>
<g><path style="opacity:1" fill="#8b0709" d="M 106.5,104.5 C 105.5,106.167 104.167,107.5 102.5,108.5C 101.357,108.092 100.357,107.425 99.5,106.5C 100.803,104.063 102.47,101.896 104.5,100C 106.319,99.2172 107.652,99.7172 108.5,101.5C 107.388,102.265 106.721,103.265 106.5,104.5 Z"/></g>
<g><path style="opacity:1" fill="#760c0c" d="M 173.5,94.5 C 177.18,99.5382 179.514,105.205 180.5,111.5C 179.043,109.758 177.876,107.758 177,105.5C 177.676,111.973 177.509,118.307 176.5,124.5C 177.136,115.347 175.469,106.68 171.5,98.5C 173.176,97.8166 173.843,96.4832 173.5,94.5 Z"/></g>
<g><path style="opacity:1" fill="#840c0d" d="M 112.5,99.5 C 111.109,101.89 109.109,103.557 106.5,104.5C 106.721,103.265 107.388,102.265 108.5,101.5C 107.652,99.7172 106.319,99.2172 104.5,100C 102.47,101.896 100.803,104.063 99.5,106.5C 100.357,107.425 101.357,108.092 102.5,108.5C 102.262,110.404 101.262,111.738 99.5,112.5C 99.6495,111.448 99.4828,110.448 99,109.5C 97.5134,108.845 96.3467,107.845 95.5,106.5C 98.8333,102.5 102.5,98.8333 106.5,95.5C 108.007,97.6904 110.007,99.0238 112.5,99.5 Z"/></g>
<g><path style="opacity:0.51" fill="#632221" d="M 169.5,106.5 C 168.833,106.5 168.167,106.5 167.5,106.5C 167.584,101.36 168.25,101.36 169.5,106.5 Z"/></g>
<g><path style="opacity:1" fill="#770c0f" d="M 56.5,103.5 C 57.2255,107.343 55.8922,110.01 52.5,111.5C 53.3257,108.515 54.659,105.849 56.5,103.5 Z"/></g>
<g><path style="opacity:1" fill="#770e0f" d="M 167.5,106.5 C 168.167,106.5 168.833,106.5 169.5,106.5C 171.06,112.732 170.727,118.732 168.5,124.5C 168.817,121.428 168.484,118.428 167.5,115.5C 166.817,115.863 166.15,116.196 165.5,116.5C 166.787,113.302 167.453,109.969 167.5,106.5 Z"/></g>
<g><path style="opacity:0.567" fill="#750d0d" d="M 180.5,97.5 C 181.496,97.4142 182.329,97.7476 183,98.5C 186.828,103.99 189.995,109.824 192.5,116C 191.767,117.766 191.433,119.599 191.5,121.5C 189.627,120.104 189.294,118.437 190.5,116.5C 188.514,109.532 185.181,103.199 180.5,97.5 Z"/></g>
<g><path style="opacity:1" fill="#6f1012" d="M 165.5,116.5 C 165.771,118.38 165.104,119.713 163.5,120.5C 163.66,118.847 164.326,117.514 165.5,116.5 Z"/></g>
<g><path style="opacity:1" fill="#6c0d0d" d="M 191.5,121.5 C 194.167,122.167 195.833,123.833 196.5,126.5C 194.5,125.167 192.833,123.5 191.5,121.5 Z"/></g>
<g><path style="opacity:1" fill="#8a0a09" d="M 168.5,124.5 C 168.233,126.965 167.566,129.299 166.5,131.5C 163.303,132.112 161.969,134.112 162.5,137.5C 162.5,137.833 162.5,138.167 162.5,138.5C 159.161,140.567 155.494,141.9 151.5,142.5C 152.372,144.45 153.039,146.45 153.5,148.5C 152.5,149.833 151.5,151.167 150.5,152.5C 149.167,152.5 147.833,152.5 146.5,152.5C 145.199,154.672 144.199,157.005 143.5,159.5C 143.5,160.167 143.167,160.5 142.5,160.5C 142.56,157.979 141.894,155.646 140.5,153.5C 140.68,152.446 141.013,151.446 141.5,150.5C 141.167,150.167 140.833,149.833 140.5,149.5C 139.476,150.853 138.143,151.52 136.5,151.5C 136.5,152.833 136.5,154.167 136.5,155.5C 134.234,155.141 132.401,155.808 131,157.5C 129.618,155.558 127.785,154.225 125.5,153.5C 126.6,152.395 127.267,151.062 127.5,149.5C 127.833,148.5 128.5,147.833 129.5,147.5C 132.089,146.581 134.089,144.914 135.5,142.5C 140.603,137.775 146.269,133.775 152.5,130.5C 153.822,130.33 154.989,130.663 156,131.5C 158.015,127.899 160.515,124.232 163.5,120.5C 165.104,119.713 165.771,118.38 165.5,116.5C 166.15,116.196 166.817,115.863 167.5,115.5C 168.484,118.428 168.817,121.428 168.5,124.5 Z"/></g>
<g><path style="opacity:1" fill="#850a0b" d="M 180.5,111.5 C 181.833,116.833 181.833,122.167 180.5,127.5C 178.692,128.918 178.025,130.918 178.5,133.5C 178.5,133.833 178.5,134.167 178.5,134.5C 177.069,134.881 176.236,135.881 176,137.5C 175.833,136.833 175.667,136.167 175.5,135.5C 176.327,132.217 176.66,128.884 176.5,125.5C 176.5,125.167 176.5,124.833 176.5,124.5C 177.509,118.307 177.676,111.973 177,105.5C 177.876,107.758 179.043,109.758 180.5,111.5 Z"/></g>
<g><path style="opacity:1" fill="#730d12" d="M 180.5,127.5 C 180.405,129.786 179.738,131.786 178.5,133.5C 178.025,130.918 178.692,128.918 180.5,127.5 Z"/></g>
<g><path style="opacity:1" fill="#7a090b" d="M 163.5,120.5 C 160.515,124.232 158.015,127.899 156,131.5C 154.989,130.663 153.822,130.33 152.5,130.5C 156.141,127.195 159.808,123.862 163.5,120.5 Z"/></g>
<g><path style="opacity:1" fill="#760c0d" d="M 196.5,126.5 C 200.564,128.022 203.564,130.689 205.5,134.5C 202.271,132.058 199.271,129.392 196.5,126.5 Z"/></g>
<g><path style="opacity:1" fill="#7e0b0c" d="M 244.5,119.5 C 246.435,123.895 247.769,128.562 248.5,133.5C 247.153,132.829 245.986,132.829 245,133.5C 245.615,128.813 245.449,124.146 244.5,119.5 Z"/></g>
<g><path style="opacity:1" fill="#760c0c" d="M 166.5,131.5 C 165.525,133.795 164.192,135.795 162.5,137.5C 161.969,134.112 163.303,132.112 166.5,131.5 Z"/></g>
<g><path style="opacity:1" fill="#7a0a0c" d="M 176.5,125.5 C 176.66,128.884 176.327,132.217 175.5,135.5C 175.667,136.167 175.833,136.833 176,137.5C 176.236,135.881 177.069,134.881 178.5,134.5C 177.674,137.485 176.341,140.151 174.5,142.5C 174.762,141.022 174.429,139.689 173.5,138.5C 172.449,140.844 170.782,142.511 168.5,143.5C 172.283,137.939 174.95,131.939 176.5,125.5 Z"/></g>
<g><path style="opacity:1" fill="#7f0a0c" d="M 162.5,138.5 C 159.959,142.252 156.959,145.585 153.5,148.5C 153.039,146.45 152.372,144.45 151.5,142.5C 155.494,141.9 159.161,140.567 162.5,138.5 Z"/></g>
<g><path style="opacity:1" fill="#740d0c" d="M 248.5,134.5 C 250.078,139.583 250.745,144.916 250.5,150.5C 249.883,150.389 249.383,150.056 249,149.5C 248.501,144.511 248.334,139.511 248.5,134.5 Z"/></g>
<g><path style="opacity:0.996" fill="#70090f" d="M 135.5,142.5 C 134.089,144.914 132.089,146.581 129.5,147.5C 130.911,145.086 132.911,143.419 135.5,142.5 Z"/></g>
<g><path style="opacity:1" fill="#7c0c0c" d="M 205.5,134.5 C 207.89,134.685 208.89,136.018 208.5,138.5C 207.229,140.742 206.063,143.075 205,145.5C 204.333,146.833 203.667,146.833 203,145.5C 202.506,147.134 202.34,148.801 202.5,150.5C 199.32,145.936 200.486,142.603 206,140.5C 206.678,138.402 206.511,136.402 205.5,134.5 Z"/></g>
<g><path style="opacity:0.996" fill="#71090c" d="M 168.5,143.5 C 164.833,149.167 160.167,153.833 154.5,157.5C 158.833,152.5 163.5,147.833 168.5,143.5 Z"/></g>
<g><path style="opacity:1" fill="#750b0e" d="M 202.5,152.5 C 202.662,154.527 202.495,156.527 202,158.5C 201.617,159.056 201.117,159.389 200.5,159.5C 200.414,158.504 200.748,157.671 201.5,157C 198.588,154.637 198.922,153.137 202.5,152.5 Z"/></g>
<g><path style="opacity:1" fill="#740b0e" d="M 150.5,152.5 C 148.5,155.167 146.167,157.5 143.5,159.5C 144.199,157.005 145.199,154.672 146.5,152.5C 147.833,152.5 149.167,152.5 150.5,152.5 Z"/></g>
<g><path style="opacity:1" fill="#710c08" d="M 250.5,158.5 C 250.624,164.069 249.957,169.402 248.5,174.5C 248.334,168.491 248.501,162.491 249,156.5C 249.278,157.416 249.778,158.082 250.5,158.5 Z"/></g>
<g><path style="opacity:1" fill="#7b090c" d="M 127.5,149.5 C 127.267,151.062 126.6,152.395 125.5,153.5C 122.6,156.529 121.266,160.196 121.5,164.5C 120.5,164.5 119.5,164.5 118.5,164.5C 118.946,167.01 118.28,169.01 116.5,170.5C 116.41,167.848 117.076,165.515 118.5,163.5C 120.104,162.713 120.771,161.38 120.5,159.5C 122.062,155.608 124.395,152.275 127.5,149.5 Z"/></g>
<g><path style="opacity:0.992" fill="#6d090c" d="M 154.5,157.5 C 151.105,161.898 147.105,165.564 142.5,168.5C 145.895,164.102 149.895,160.436 154.5,157.5 Z"/></g>
<g><path style="opacity:0.592" fill="#68100d" d="M 120.5,159.5 C 120.771,161.38 120.104,162.713 118.5,163.5C 118.66,161.847 119.326,160.514 120.5,159.5 Z"/></g>
<g><path style="opacity:0.894" fill="#6d0f11" d="M 200.5,159.5 C 200.517,161.565 200.85,163.565 201.5,165.5C 201.768,167.099 201.434,168.432 200.5,169.5C 200.538,166.819 199.871,164.319 198.5,162C 198.639,160.699 199.305,159.866 200.5,159.5 Z"/></g>
<g><path style="opacity:1" fill="#860a0b" d="M 142.5,160.5 C 139.136,164.857 135.802,169.191 132.5,173.5C 130.787,172.777 129.787,171.443 129.5,169.5C 130.066,167.303 130.732,165.136 131.5,163C 131.167,162.5 130.833,162 130.5,161.5C 129.186,162.313 128.019,163.313 127,164.5C 126.023,162.26 125.523,159.927 125.5,157.5C 129.66,158.744 133.326,160.744 136.5,163.5C 136.5,162.167 136.5,160.833 136.5,159.5C 135.127,159.657 133.793,159.49 132.5,159C 134.547,157.927 136.547,156.761 138.5,155.5C 139.151,157.847 140.484,159.514 142.5,160.5 Z"/></g>
<g><path style="opacity:1" fill="#790c0c" d="M 161.5,161.5 C 160.214,164.117 158.547,166.45 156.5,168.5C 156.67,167.178 156.337,166.011 155.5,165C 156.833,164.333 158.167,163.667 159.5,163C 158.5,162.667 157.5,162.333 156.5,162C 158.134,161.506 159.801,161.34 161.5,161.5 Z"/></g>
<g><path style="opacity:1" fill="#760c0c" d="M 48.5,122.5 C 48.665,125.85 48.4983,129.183 48,132.5C 46.3984,134.263 45.8984,136.096 46.5,138C 45.8095,139.067 45.3095,140.234 45,141.5C 44.8333,145.833 44.6667,150.167 44.5,154.5C 45.5558,164.054 46.5558,173.721 47.5,183.5C 44.1445,174.249 42.8111,164.582 43.5,154.5C 42.8071,143.332 44.4737,132.665 48.5,122.5 Z"/></g>
<g><path style="opacity:1" fill="#780d0c" d="M 92.5,123.5 C 84.872,141.006 83.5387,159.006 88.5,177.5C 87.1172,174.941 85.4505,172.441 83.5,170C 84.8333,159.333 84.8333,148.667 83.5,138C 84.448,137.517 85.448,137.351 86.5,137.5C 86.85,132.133 88.85,127.466 92.5,123.5 Z"/></g>
<g><path style="opacity:1" fill="#730b10" d="M 142.5,169.5 C 141.92,171.749 140.587,173.415 138.5,174.5C 139.08,172.251 140.413,170.585 142.5,169.5 Z"/></g>
<g><path style="opacity:1" fill="#760e0c" d="M 154.5,170.5 C 154.262,172.404 153.262,173.738 151.5,174.5C 151.5,173.167 151.5,171.833 151.5,170.5C 152.5,170.5 153.5,170.5 154.5,170.5 Z"/></g>
<g><path style="opacity:1" fill="#850a0a" d="M 201.5,165.5 C 202.807,167.223 202.807,169.057 201.5,171C 203.074,171.353 204.741,172.02 206.5,173C 205.874,173.75 205.374,174.584 205,175.5C 203.135,176.081 201.469,175.414 200,173.5C 197.248,175.452 194.415,177.285 191.5,179C 187.472,179.392 183.472,179.892 179.5,180.5C 179.5,181.833 179.5,183.167 179.5,184.5C 175.785,182.494 171.785,181.161 167.5,180.5C 176.713,176.888 186.379,174.721 196.5,174C 198.384,172.951 199.718,171.451 200.5,169.5C 201.434,168.432 201.768,167.099 201.5,165.5 Z"/></g>
<g><path style="opacity:1" fill="#840b0d" d="M 116.5,170.5 C 116.04,177.677 116.54,184.677 118,191.5C 120.503,186.517 122.003,181.184 122.5,175.5C 123.167,174.167 123.833,172.833 124.5,171.5C 124.833,172.333 125.167,173.167 125.5,174C 125.369,178.021 125.202,182.187 125,186.5C 124.057,189.109 122.39,191.109 120,192.5C 119.503,194.81 119.337,197.143 119.5,199.5C 118.857,197.924 117.857,196.59 116.5,195.5C 114.116,187.012 114.116,178.679 116.5,170.5 Z"/></g>
<g><path style="opacity:1" fill="#770a0d" d="M 138.5,174.5 C 138.527,178.466 136.861,181.466 133.5,183.5C 134.41,180.008 136.076,177.008 138.5,174.5 Z"/></g>
<g><path style="opacity:1" fill="#720d0c" d="M 132.5,174.5 C 130.728,178.809 129.394,183.142 128.5,187.5C 128.335,184.482 128.502,181.482 129,178.5C 129.66,176.676 130.827,175.343 132.5,174.5 Z"/></g>
<g><path style="opacity:1" fill="#7b090d" d="M 248.5,175.5 C 247.607,181.172 245.941,186.506 243.5,191.5C 243.71,185.512 245.377,180.178 248.5,175.5 Z"/></g>
<g><path style="opacity:1" fill="#7c0c0e" d="M 148.5,179.5 C 147.189,182.135 145.522,184.469 143.5,186.5C 143.011,182.513 144.678,180.18 148.5,179.5 Z"/></g>
<g><path style="opacity:1" fill="#680f12" d="M 47.5,185.5 C 49.1765,186.183 49.8432,187.517 49.5,189.5C 48.6554,188.329 47.9887,186.995 47.5,185.5 Z"/></g>
<g><path style="opacity:1" fill="#7e090a" d="M 88.5,178.5 C 90.7365,182.645 92.7365,186.978 94.5,191.5C 92.9519,191.179 92.2852,190.179 92.5,188.5C 91.1779,188.33 90.0113,188.663 89,189.5C 85.5544,187.61 85.7211,186.11 89.5,185C 88.5769,182.959 88.2436,180.792 88.5,178.5 Z"/></g>
<g><path style="opacity:1" fill="#810a0d" d="M 160.5,184.5 C 160.821,186.048 161.821,186.715 163.5,186.5C 163.5,187.5 163.5,188.5 163.5,189.5C 161.131,189.149 158.797,188.982 156.5,189C 155.751,190.734 155.251,192.567 155,194.5C 154.692,193.692 154.192,193.025 153.5,192.5C 152.676,194.421 151.343,195.754 149.5,196.5C 151.777,191.223 155.444,187.223 160.5,184.5 Z"/></g>
<g><path style="opacity:0.62" fill="#711111" d="M 133.5,183.5 C 133.414,184.496 133.748,185.329 134.5,186C 133.131,187.719 132.131,189.552 131.5,191.5C 131.294,188.505 131.96,185.838 133.5,183.5 Z"/></g>
<g><path style="opacity:1" fill="#710b10" d="M 97.5,196.5 C 99.914,197.911 101.581,199.911 102.5,202.5C 100.086,201.089 98.4194,199.089 97.5,196.5 Z"/></g>
<g><path style="opacity:0.855" fill="#721014" d="M 116.5,195.5 C 117.857,196.59 118.857,197.924 119.5,199.5C 119.993,201.806 120.326,204.139 120.5,206.5C 118.796,203.061 117.462,199.395 116.5,195.5 Z"/></g>
<g><path style="opacity:1" fill="#710f10" d="M 149.5,196.5 C 149.125,200.907 147.458,204.574 144.5,207.5C 145.602,203.508 147.268,199.841 149.5,196.5 Z"/></g>
<g><path style="opacity:1" fill="#7f090e" d="M 243.5,192.5 C 240.845,199.817 237.178,206.484 232.5,212.5C 233.423,209.223 234.256,205.89 235,202.5C 236.011,201.663 237.178,201.33 238.5,201.5C 238.473,197.534 240.139,194.534 243.5,192.5 Z"/></g>
<g><path style="opacity:1" fill="#771011" d="M 136.5,202.5 C 136.279,205.067 135.612,207.401 134.5,209.5C 133.99,206.612 134.656,204.279 136.5,202.5 Z"/></g>
<g><path style="opacity:1" fill="#740c0f" d="M 54.5,202.5 C 55.5832,202.539 56.5832,202.873 57.5,203.5C 60.065,207.297 62.065,211.297 63.5,215.5C 60.1427,211.465 57.1427,207.132 54.5,202.5 Z"/></g>
<g><path style="opacity:1" fill="#700d10" d="M 102.5,202.5 C 105.5,204.833 108.167,207.5 110.5,210.5C 106.789,208.789 104.122,206.123 102.5,202.5 Z"/></g>
<g><path style="opacity:1" fill="#700e0f" d="M 120.5,207.5 C 123.084,208.048 124.084,209.715 123.5,212.5C 122.263,211.035 121.263,209.368 120.5,207.5 Z"/></g>
<g><path style="opacity:1" fill="#7a0e0f" d="M 63.5,215.5 C 64.6879,216.684 65.8545,216.684 67,215.5C 67.6575,218.285 68.4909,220.951 69.5,223.5C 67.016,221.2 65.016,218.533 63.5,215.5 Z"/></g>
<g><path style="opacity:1" fill="#750809" d="M 121.5,217.5 C 123.5,218.167 125.5,218.833 127.5,219.5C 124.887,220.993 122.887,220.326 121.5,217.5 Z"/></g>
<g><path style="opacity:0.996" fill="#6f0a0c" d="M 140.5,217.5 C 139.833,220.167 138.167,221.833 135.5,222.5C 136.833,220.5 138.5,218.833 140.5,217.5 Z"/></g>
<g><path style="opacity:0.91" fill="#6c0b10" d="M 69.5,223.5 C 72.5,224.5 74.5,226.5 75.5,229.5C 73.1667,227.833 71.1667,225.833 69.5,223.5 Z"/></g>
<g><path style="opacity:0.914" fill="#731213" d="M 75.5,229.5 C 77.8333,229.833 79.1667,231.167 79.5,233.5C 77.8333,232.5 76.5,231.167 75.5,229.5 Z"/></g>
<g><path style="opacity:1" fill="#7b0c0d" d="M 79.5,233.5 C 82.4873,234.258 85.4873,235.091 88.5,236C 88.2144,237.388 88.5477,238.888 89.5,240.5C 85.8084,238.656 82.4751,236.323 79.5,233.5 Z"/></g>
<g><path style="opacity:1" fill="#7d0b0c" d="M 208.5,237.5 C 205.106,240.221 201.439,242.554 197.5,244.5C 197.047,243.542 196.381,242.708 195.5,242C 198.722,241.65 201.388,240.316 203.5,238C 205.134,237.506 206.801,237.34 208.5,237.5 Z"/></g>
<g><path style="opacity:0.918" fill="#711317" d="M 91.5,241.5 C 93.0269,241.427 94.0269,242.094 94.5,243.5C 92.9731,243.573 91.9731,242.906 91.5,241.5 Z"/></g>
<g><path style="opacity:1" fill="#7e0f0e" d="M 106.5,249.5 C 101.902,248.535 97.9024,246.535 94.5,243.5C 95.6948,243.678 96.8615,244.011 98,244.5C 102.297,240.388 103.464,240.888 101.5,246C 103.584,246.697 105.251,247.864 106.5,249.5 Z"/></g>
<g><path style="opacity:1" fill="#7d0a0f" d="M 197.5,244.5 C 193.584,247.29 189.251,249.29 184.5,250.5C 188.103,247.202 192.436,245.202 197.5,244.5 Z"/></g>
<g><path style="opacity:1" fill="#720d0f" d="M 106.5,249.5 C 112.086,249.806 117.086,251.473 121.5,254.5C 116.085,253.806 111.085,252.14 106.5,249.5 Z"/></g>
<g><path style="opacity:1" fill="#7c0c0b" d="M 178.5,252.5 C 173.809,254.591 168.809,255.924 163.5,256.5C 165.026,254.87 167.026,254.037 169.5,254C 171.14,252.605 172.64,251.105 174,249.5C 174.589,251.863 176.089,252.863 178.5,252.5 Z"/></g>
<g><path style="opacity:1" fill="#73130e" d="M 121.5,254.5 C 124.518,254.335 127.518,254.502 130.5,255C 131.056,255.383 131.389,255.883 131.5,256.5C 127.878,256.678 124.544,256.011 121.5,254.5 Z"/></g>
<g><path style="opacity:0.871" fill="#770d0c" d="M 131.5,256.5 C 141.5,256.5 151.5,256.5 161.5,256.5C 156.668,257.327 151.668,257.993 146.5,258.5C 141.332,257.993 136.332,257.327 131.5,256.5 Z"/></g>
</svg>
